<svg width="436" height="293" viewBox="0 0 436 293" fill="none" xmlns="http://www.w3.org/2000/svg">
<path d="M243.502 233.725L276.002 228.725L391.502 291.725L243.502 269.725V233.725Z" fill="#35A893" stroke="#309D89"/>
<path d="M192.502 233.225L160.002 228.225L44.502 291.225L192.502 269.225V233.225Z" fill="#35A893" stroke="#309D89"/>
<path d="M150.499 163.725L126.502 151.725L21.0648 259.043L156.009 194.405L150.499 163.725Z" fill="#35A893" stroke="#309D89"/>
<path d="M285.103 162.941L309.1 150.941L414.537 258.258L279.593 193.62L285.103 162.941Z" fill="#35A893" stroke="#309D89"/>
<path d="M177.003 125.225L145.004 102.225L196.469 0.225685L199.002 99.7251L177.003 125.225Z" fill="#35A893" stroke="#309D89"/>
<path d="M258.198 125.225L290.198 102.225L238.732 0.225197L236.199 99.7246L258.198 125.225Z" fill="#35A893" stroke="#309D89"/>
<rect x="185.502" y="145.225" width="64" height="65" rx="8" fill="#FFFFFF"/>
</svg>
