<svg width="910" height="148" viewBox="0 0 910 148" fill="none" xmlns="http://www.w3.org/2000/svg">
<path d="M228.956 2H193.906V143.951H309.57V117.664H228.956V2Z" fill="#FFFFFF"/>
<path d="M33.2971 2H0V143.951H33.2971V94.8813L42.0595 86.1189L100.767 143.951H144.579L68.3466 69.4704L139.322 2H98.1388L33.2971 63.3367V2Z" fill="#FFFFFF"/>
<path d="M798.717 2H765.42V143.951H798.717V94.8813L807.479 86.1189L866.187 143.951H909.999L833.767 69.4704L904.742 2H863.559L798.717 63.3367V2Z" fill="#FFFFFF"/>
<path d="M430.039 0C475.71 2.27506e-05 512.734 33.1309 512.734 74C512.734 114.869 475.71 148 430.039 148C384.368 148 347.344 114.869 347.344 74C347.344 33.1309 384.368 0 430.039 0ZM430.909 26.1172C403.026 26.1173 380.422 47.5554 380.422 74C380.422 100.445 403.026 121.883 430.909 121.883C458.793 121.883 481.397 100.445 481.397 74C481.397 47.5553 458.793 26.1172 430.909 26.1172Z" fill="#FFFFFF"/>
<path d="M656.949 1.57324C670.279 1.57324 682.955 3.76943 694.423 7.72559V38.4268C684.542 31.5528 671.818 27.4131 657.932 27.4131C626.49 27.4131 601.001 48.6235 601.001 74.7871C601.001 100.951 626.49 122.16 657.932 122.16C671.818 122.16 684.542 118.021 694.423 111.146V141.847C682.955 145.803 670.279 148 656.949 148C605.45 148 563.701 115.221 563.701 74.7861C563.701 34.3515 605.45 1.57326 656.949 1.57324Z" fill="#FFFFFF"/>
</svg>
